<svg width="67" height="69" viewBox="0 0 67 69" fill="none" xmlns="http://www.w3.org/2000/svg">
<path d="M10.5781 52V17.875H21.5703C24.5859 17.875 27.2969 18.5625 29.7031 19.9375C32.1094 21.2969 33.9844 23.2266 35.3281 25.7266C36.6875 28.2109 37.375 31 37.3906 34.0938V35.6641C37.3906 38.7891 36.7266 41.5938 35.3984 44.0781C34.0859 46.5469 32.2266 48.4844 29.8203 49.8906C27.4297 51.2812 24.7578 51.9844 21.8047 52H10.5781ZM18.8047 24.2266V45.6719H21.6641C24.0234 45.6719 25.8359 44.8359 27.1016 43.1641C28.3672 41.4766 29 38.9766 29 35.6641V34.1875C29 30.8906 28.3672 28.4062 27.1016 26.7344C25.8359 25.0625 23.9922 24.2266 21.5703 24.2266H18.8047ZM48.8909 42.9297C48.8909 41.7266 48.4613 40.7891 47.6019 40.1172C46.7581 39.4453 45.2659 38.75 43.1253 38.0312C40.9847 37.3125 39.2347 36.6172 37.8753 35.9453C33.4534 33.7734 31.2425 30.7891 31.2425 26.9922C31.2425 25.1016 31.7894 23.4375 32.8831 22C33.9925 20.5469 35.555 19.4219 37.5706 18.625C39.5863 17.8125 41.8519 17.4062 44.3675 17.4062C46.8206 17.4062 49.0159 17.8438 50.9534 18.7188C52.9066 19.5938 54.4222 20.8438 55.5003 22.4688C56.5784 24.0781 57.1175 25.9219 57.1175 28H48.9144C48.9144 26.6094 48.4847 25.5312 47.6253 24.7656C46.7816 24 45.6331 23.6172 44.18 23.6172C42.7113 23.6172 41.5472 23.9453 40.6878 24.6016C39.8441 25.2422 39.4222 26.0625 39.4222 27.0625C39.4222 27.9375 39.8909 28.7344 40.8284 29.4531C41.7659 30.1562 43.4144 30.8906 45.7738 31.6562C48.1331 32.4062 50.0706 33.2188 51.5863 34.0938C55.2738 36.2188 57.1175 39.1484 57.1175 42.8828C57.1175 45.8672 55.9925 48.2109 53.7425 49.9141C51.4925 51.6172 48.4066 52.4688 44.4847 52.4688C41.7191 52.4688 39.2113 51.9766 36.9613 50.9922C34.7269 49.9922 33.0394 48.6328 31.8988 46.9141C30.7738 45.1797 30.2113 43.1875 30.2113 40.9375H38.4613C38.4613 42.7656 38.93 44.1172 39.8675 44.9922C40.8206 45.8516 42.3597 46.2812 44.4847 46.2812C45.8441 46.2812 46.9144 45.9922 47.6956 45.4141C48.4925 44.8203 48.8909 43.9922 48.8909 42.9297Z" fill="url(#paint0_linear)"/>
<path d="M67 34.5C67 53.5538 52.0015 69 33.5 69C14.9985 69 0 53.5538 0 34.5C0 15.4462 14.9985 0 33.5 0C52.0015 0 67 15.4462 67 34.5ZM3.22874 34.5C3.22874 51.7174 16.7816 65.6749 33.5 65.6749C50.2184 65.6749 63.7713 51.7174 63.7713 34.5C63.7713 17.2826 50.2184 3.32512 33.5 3.32512C16.7816 3.32512 3.22874 17.2826 3.22874 34.5Z" fill="#42C194"/>
<defs>
<linearGradient id="paint0_linear" x1="10" y1="19.5" x2="55.5" y2="48.5" gradientUnits="userSpaceOnUse">
<stop stop-color="#5600E2"/>
<stop offset="0.53125" stop-color="#0793BF"/>
<stop offset="1" stop-color="#0ACCC0"/>
</linearGradient>
</defs>
</svg>
